<?xml version="1.0" standalone="no"?>
<!DOCTYPE svg PUBLIC "-//W3C//DTD SVG 1.1//EN" "http://www.w3.org/Graphics/SVG/1.1/DTD/svg11.dtd">
<svg xmlns="http://www.w3.org/2000/svg">
<defs >
<font id="Hind" horiz-adv-x="564" ><font-face
    font-family="Hind Bold"
    units-per-em="1000"
    panose-1="2 0 0 0 0 0 0 0 0 0"
    ascent="1055"
    descent="-546"
    alphabetic="0" />
<glyph unicode=" " glyph-name="space" horiz-adv-x="250" />
<glyph unicode="!" glyph-name="exclam" horiz-adv-x="289" d="M52 45T52 83T78 147T143 174T207 148T234 83T208 19T143 -8T79 18ZM75 236V674H214V236H75Z" />
<glyph unicode="&quot;" glyph-name="quotedbl" horiz-adv-x="387" d="M225 420V681H347V420H225ZM40 420V681H162V420H40Z" />
<glyph unicode="#" glyph-name="numbersign" horiz-adv-x="757" d="M712 400H581L552 265H678V154H529L496 0H373L405 154H269L236 0H113L145 154H45V265H169L197 400H79V516H222L255 673H379L346 516H482L515 673H639L606 516H712V400ZM429 265L457 400H321L292
265H429Z" />
<glyph unicode="$" glyph-name="dollar" horiz-adv-x="514" d="M281 547Q242 547 222 531T201 490T226 446T291 408T352 380T399 351T442 312Q479 262 479 191T431 67T299 -2V-118H178V-5Q95 3 40 34V189Q131 123 234 123Q269 123 292 141T315 190Q315 212 304
223T286 239T264 252T239 265Q208 281 178 293Q113 323 74 367T34 486T85 612T227 675V790H349V673Q402 665 449 644V500Q368 547 281 547Z" />
<glyph unicode="%" glyph-name="percent" horiz-adv-x="973" d="M665 212T665 182T686 131T738 109T789 130T811 182T790 233T738 255T687 234ZM162 562T162 532T183 481T235 459T286 480T308 532T287 583T235 605T184 584ZM45 453T45 532T100 666T235 722T369
667T425 532T370 398T235 342T101 397ZM548 103T548 182T603 316T738 372T872 317T928 182T873 48T738 -8T604 47ZM227 -1L606 707H738L358 -1H227Z" />
<glyph unicode="&amp;" glyph-name="ampersand" horiz-adv-x="742" d="M335 -8Q203 -8 127 48T50 184Q50 308 192 354Q124 429 124 502Q124 591 185 639T345 688T503 639T563 500Q563 441 530 396T421 312L519 216Q537 255 537 301H668Q668 201 612 123L737 0H558L519
39Q438 -8 335 -8ZM416 529T396 549T343 569T291 552T272 504Q272 460 341 391Q416 432 416 492Q416 529 396 549ZM232 257T216 237T199 186T238 134T330 112T425 130Q294 258 288 263T278 273Q232 257 216 237Z" />
<glyph unicode="&apos;" glyph-name="quotesingle" horiz-adv-x="202" d="M40 420V681H162V420H40Z" />
<glyph unicode="(" glyph-name="parenleft" horiz-adv-x="338" d="M203 -196Q40 7 40 263T197 707H348Q275 618 235 491T194 257T236 26T358 -196H203Z" />
<glyph unicode=")" glyph-name="parenright" horiz-adv-x="338" d="M141 707Q298 519 298 263T135 -196H-20Q60 -98 102 25T144 256T104 491T-10 707H141Z" />
<glyph unicode="*" glyph-name="asterisk" horiz-adv-x="508" d="M339 428H337Q358 412 373 392L431 312L335 243L278 322Q262 344 256 365Q248 346 232 323L173 243L78 313L136 392Q151 412 171 427Q148 427 122 436L28 467L65 579L158 549Q184 540 203 526Q196
550 196 576V674H314V576Q314 550 307 526Q325 539 351 548L445 578L481 466L389 436Q364 428 339 428Z" />
<glyph unicode="+" glyph-name="plus" horiz-adv-x="589" d="M544 404V274H361V94H227V274H45V404H227V585H361V404H544Z" />
<glyph unicode="," glyph-name="comma" horiz-adv-x="294" d="M-7 -127L94 134H255L119 -127H-7Z" />
<glyph unicode="-" glyph-name="hyphen" horiz-adv-x="357" d="M45 202V322H312V202H45Z" />
<glyph unicode="." glyph-name="period" horiz-adv-x="258" d="M40 44T40 81T66 144T129 170T192 144T218 81T192 18T129 -8T66 18Z" />
<glyph unicode="/" glyph-name="slash" horiz-adv-x="464" d="M-2 -103L357 707H509L149 -103H-2Z" />
<glyph unicode="0" glyph-name="zero" horiz-adv-x="547" d="M184 538T184 330T273 122T363 330T274 538ZM155 -8T95 83T35 330T95 577T273 668T451 577T512 331T452 84T273 -8Z" />
<glyph unicode="1" glyph-name="one" horiz-adv-x="380" d="M320 654V0H175V497L10 398V547L194 654H320Z" />
<glyph unicode="2" glyph-name="two" horiz-adv-x="501" d="M466 124V0H30V113Q138 187 220 277T303 436Q303 478 278 502T202 527Q117 527 41 464V605Q74 629 127 646T231 663Q333 663 393 610T454 460Q454 287 234 124H466Z" />
<glyph unicode="3" glyph-name="three" horiz-adv-x="483" d="M205 663Q311 663 373 613T435 481Q435 370 334 328Q448 301 448 180Q448 96 385 46T211 -5T30 29V169Q110 125 195 125Q244 125 271 146T299 199Q299 272 164 272H129V392H164Q217 392 251 410T285
464Q285 533 195 533Q126 533 56 490V626Q130 663 205 663Z" />
<glyph unicode="4" glyph-name="four" horiz-adv-x="562" d="M542 263V139H462V0H317V139H30V263L230 656H462V263H542ZM317 263V559L173 263H317Z" />
<glyph unicode="5" glyph-name="five" horiz-adv-x="500" d="M205 532V421Q227 424 249 424Q356 424 413 369T470 216T403 56T219 -6T35 29V167Q103 125 187 125Q321 125 321 221Q321 257 294 278T200 299T63 266V656H430V532H205Z" />
<glyph unicode="6" glyph-name="six" horiz-adv-x="537" d="M370 536Q299 536 254 493T192 376Q246 422 326 422T459 365T512 211T450 47T273 -20T97 66T35 299Q35 466 126 566T358 666Q411 666 461 650V515Q422 536 370 536ZM280 110Q319 110 341 137T363 207T342
274T281 299Q227 299 186 256Q197 110 280 110Z" />
<glyph unicode="7" glyph-name="seven" horiz-adv-x="480" d="M20 655H460V531L206 0H52L307 531H20V655Z" />
<glyph unicode="8" glyph-name="eight" horiz-adv-x="545" d="M510 182Q510 96 444 43T270 -10T99 40T35 177Q35 283 130 330Q45 379 45 471T108 614T272 666T435 617T499 475T417 333Q510 290 510 182ZM270 550Q230 550 211 528T192 470T215 414T272 393T330
414T353 473Q353 550 270 550ZM181 150T202 128T270 106T340 128T364 185T340 242T271 265T204 240T181 183Z" />
<glyph unicode="9" glyph-name="nine" horiz-adv-x="533" d="M170 124Q248 124 291 159T347 271Q304 228 217 228T75 284T20 437T81 598T254 663T431 579T498 348Q498 169 413 81T186 -8Q118 -8 67 11V149Q119 124 170 124ZM254 346Q314 346 351 391Q339 533 255
533Q216 533 193 508T169 441T192 372T254 346Z" />
<glyph unicode=":" glyph-name="colon" horiz-adv-x="286" d="M55 51T55 88T80 150T143 176T205 151T231 88T206 26T143 0T81 25ZM55 382T55 419T80 481T143 507T205 482T231 419T206 357T143 331T81 356Z" />
<glyph unicode=";" glyph-name="semicolon" horiz-adv-x="294" d="M-7 -127L94 134H255L119 -127H-7ZM73 382T73 419T98 481T161 507T223 482T249 419T224 357T161 331T99 356Z" />
<glyph unicode="&lt;" glyph-name="less" horiz-adv-x="589" d="M45 271V409L544 587V443L190 340L544 237V93L45 271Z" />
<glyph unicode="=" glyph-name="equal" horiz-adv-x="589" d="M45 166V286H544V166H45ZM45 394V514H544V394H45Z" />
<glyph unicode="&gt;" glyph-name="greater" horiz-adv-x="589" d="M544 409V271L45 93V237L399 340L45 443V587L544 409Z" />
<glyph unicode="?" glyph-name="question" horiz-adv-x="458" d="M103 45T103 83T129 147T194 174T258 148T285 83T259 19T194 -8T130 18ZM65 654Q125 682 218 682T370 633T428 499Q428 454 410 418T365 360Q309 318 265 318L262 236H129L126 387Q280 387 280
481Q280 517 259 538T195 560Q130 560 65 517V654Z" />
<glyph unicode="@" glyph-name="at" horiz-adv-x="977" d="M468 -216Q334 -216 235 -158T88 -6T40 208T105 438T280 609T510 671T726 625T882 488T942 278T883 80T739 0Q621 0 586 109Q566 56 526 29T434 1Q353 1 306 62T259 220T320 380T463 444T584 371Q588
420 589 442H705L692 221Q692 113 743 113Q778 113 800 154T822 267Q822 409 736 481T514 553Q411 553 331 502T209 369T168 196Q168 61 254 -18T467 -98Q572 -98 668 -52L664 -175Q572 -216 468 -216ZM576 204L577 244Q571 291 546 315T484 340T417 305T387 216T413
133T474 105T537 130T576 204Z" />
<glyph unicode="A" glyph-name="A" horiz-adv-x="690" d="M502 0L461 138H225L184 0H23L248 674H442L667 0H502ZM262 262H424Q357 491 343 562Q337 518 262 262Z" />
<glyph unicode="B" glyph-name="B" horiz-adv-x="605" d="M65 674H327Q438 674 496 622T554 488Q554 435 526 395T453 341Q570 306 570 183Q570 103 513 52T356 0H65V674ZM219 551V400H276Q336 400 366 422T397 480Q397 551 301 551H219ZM219 123H300Q414 123
414 201T301 279H219V123Z" />
<glyph unicode="C" glyph-name="C" horiz-adv-x="613" d="M563 497Q488 543 402 543T260 487T205 336T260 188T405 133T563 181V30Q502 -8 387 -8Q239 -8 140 87T40 336T136 586T388 683Q502 683 563 645V497Z" />
<glyph unicode="D" glyph-name="D" horiz-adv-x="683" d="M65 674H297Q449 674 546 581T643 348Q643 186 548 93T295 0H65V674ZM223 126H293Q386 126 436 184T487 340T436 492T292 547H223V126Z" />
<glyph unicode="E" glyph-name="E" horiz-adv-x="544" d="M220 123H484V0H65V674H480V551H220V398H452V276H220V123Z" />
<glyph unicode="F" glyph-name="F" horiz-adv-x="506" d="M476 551H220V377H443V254H220V0H65V674H476V551Z" />
<glyph unicode="G" glyph-name="G" horiz-adv-x="706" d="M646 402V62Q550 -8 396 -8T141 85T40 337T145 591T413 686Q527 686 610 644V490Q514 545 416 545T262 489T206 338T261 187T411 131Q454 131 496 144V271H387V402H646Z" />
<glyph unicode="H" glyph-name="H" horiz-adv-x="686" d="M466 674H621V0H466V269H219V0H65V674H219V400H466V674Z" />
<glyph unicode="I" glyph-name="I" horiz-adv-x="304" d="M75 0V674H229V0H75Z" />
<glyph unicode="J" glyph-name="J" horiz-adv-x="392" d="M107 132Q178 132 178 208V673H332V204Q332 107 281 53T137 -1Q68 -1 30 19V155Q67 132 107 132Z" />
<glyph unicode="K" glyph-name="K" horiz-adv-x="662" d="M406 337L645 0H452L226 335L444 674H627L406 337ZM65 0V674H219V0H65Z" />
<glyph unicode="L" glyph-name="L" horiz-adv-x="488" d="M219 135H468V0H65V674H219V135Z" />
<glyph unicode="M" glyph-name="M" horiz-adv-x="893" d="M50 0L108 674H277Q398 359 413 313T439 226Q455 292 509 430L604 674H773L843 0H689L664 261L651 458Q630 397 484 7H393Q255 379 234 458Q234 387 225 261L204 0H50Z" />
<glyph unicode="N" glyph-name="N" horiz-adv-x="697" d="M65 0V674H234L391 395Q459 274 488 190Q478 264 478 395V674H632V0H463L302 279Q239 386 212 463L204 488Q219 398 219 279V0H65Z" />
<glyph unicode="O" glyph-name="O" horiz-adv-x="736" d="M205 434T205 339T249 189T368 133T487 188T531 339T487 489T368 545T249 490ZM218 -7T129 88T40 338T129 589T368 685T607 590T696 340T607 89T368 -7Z" />
<glyph unicode="P" glyph-name="P" horiz-adv-x="563" d="M65 674H297Q409 674 478 611T548 444T476 279T297 218H219V0H65V674ZM219 340H295Q342 346 367 376T392 447T366 518T295 551H219V340Z" />
<glyph unicode="Q" glyph-name="Q" horiz-adv-x="741" d="M40 184T40 339T129 589T368 685T607 590T696 339Q696 233 653 153T532 31L738 -84L563 -151L364 -7Q216 -6 128 89ZM205 434T205 339T249 189T368 133T487 188T531 339T487 489T368 545T249 490Z" />
<glyph unicode="R" glyph-name="R" horiz-adv-x="614" d="M219 234V0H65V674H298Q411 674 479 614T548 458Q548 314 425 259L596 0H412L266 234H219ZM219 549V359H292Q392 359 392 457Q392 500 366 524T295 549H219Z" />
<glyph unicode="S" glyph-name="S" horiz-adv-x="514" d="M286 547Q247 547 227 531T206 490T231 446T296 408T357 380T404 351T446 312Q484 262 484 196Q484 105 417 49T235 -8T45 34V189Q136 123 239 123Q274 123 297 141T320 190Q320 212 309 223T291 239T269
252T244 265Q213 280 183 293Q118 323 79 367T39 491T103 624T274 678T454 644V500Q373 547 286 547Z" />
<glyph unicode="T" glyph-name="T" horiz-adv-x="544" d="M514 674V550H350V0H195V550H30V674H514Z" />
<glyph unicode="U" glyph-name="U" horiz-adv-x="668" d="M454 260V674H608V261Q608 129 534 60T335 -10T135 59T60 254V674H214V255Q214 130 334 130T454 260Z" />
<glyph unicode="V" glyph-name="V" horiz-adv-x="659" d="M640 674L413 0H243L19 674H185L266 405Q310 261 330 139Q346 243 395 405L476 674H640Z" />
<glyph unicode="W" glyph-name="W" horiz-adv-x="971" d="M431 664H545Q655 269 677 168Q690 257 733 427L795 674H952L772 0H600Q497 372 488 426Q485 385 434 213L372 0H200L19 674H181Q263 346 276 282T296 168Q312 241 431 664Z" />
<glyph unicode="X" glyph-name="X" horiz-adv-x="663" d="M331 210L213 0H27L240 342L37 674H216L328 477L435 674H623L419 341L636 0H453L331 210Z" />
<glyph unicode="Y" glyph-name="Y" horiz-adv-x="643" d="M397 0H243V247L13 674H193Q294 432 319 360Q329 405 407 576L451 674H630L397 248V0Z" />
<glyph unicode="Z" glyph-name="Z" horiz-adv-x="621" d="M549 674V565L245 124H561V0H60V113L362 550H66V674H549Z" />
<glyph unicode="[" glyph-name="bracketleft" horiz-adv-x="363" d="M348 580H203V-68H348V-196H65V707H348V580Z" />
<glyph unicode="\" glyph-name="backslash" horiz-adv-x="464" d="M107 707L466 -103H315L-45 707H107Z" />
<glyph unicode="]" glyph-name="bracketright" horiz-adv-x="363" d="M298 707V-196H15V-68H160V580H15V707H298Z" />
<glyph unicode="^" glyph-name="asciicircum" horiz-adv-x="491" d="M458 332H323L246 478L168 332H33L184 594H307L458 332Z" />
<glyph unicode="_" glyph-name="underscore" horiz-adv-x="546" d="M20 -166V-45H526V-166H20Z" />
<glyph unicode="`" glyph-name="grave" horiz-adv-x="500" d="M280 798L366 621H245L134 798H280Z" />
<glyph unicode="a" glyph-name="a" horiz-adv-x="516" d="M74 482Q134 516 244 516T408 470T461 325V0H318V62Q286 -3 192 -3Q118 -3 77 39T35 149T88 257T247 298H311V333Q311 397 228 397T74 351V482ZM311 208H264Q227 208 207 192T187 151Q187 100 246 100Q277
100 294 119T311 171V208Z" />
<glyph unicode="b" glyph-name="b" horiz-adv-x="611" d="M206 707V429Q258 513 355 513T514 444T576 262T517 71T357 -6T206 79V0H60V707H206ZM206 194T237 155T316 116T396 153T428 254T397 355T319 392T240 357T206 258Z" />
<glyph unicode="c" glyph-name="c" horiz-adv-x="469" d="M187 185T223 148T320 111T439 146V24Q380 -8 297 -8Q183 -8 109 64T35 252Q37 366 109 440T306 515Q383 515 439 486V361Q386 394 323 394T222 358T183 252Q187 185 223 148Z" />
<glyph unicode="d" glyph-name="d" horiz-adv-x="611" d="M405 707H551V0H405V79Q354 -6 254 -6T95 71T35 261T97 444T256 513T405 429V707ZM183 191T215 154T295 116T374 155T405 258T372 357T292 392T215 355T183 255Z" />
<glyph unicode="e" glyph-name="e" horiz-adv-x="533" d="M458 29Q406 -5 290 -5T105 67T35 257T102 443T270 512T430 453T489 275Q489 252 481 196H183Q198 154 235 131T324 108Q401 108 458 151V29ZM353 300V312Q346 401 275 401Q240 401 213 376T177 300H353Z" />
<glyph unicode="f" glyph-name="f" horiz-adv-x="346" d="M366 592Q338 603 308 603Q241 603 241 526V507H336V400H241V0H96V400H30V507H96V526Q96 618 147 669T290 720Q337 720 366 710V592Z" />
<glyph unicode="g" glyph-name="g" horiz-adv-x="585" d="M385 507H530V49Q530 -73 457 -134T276 -196T87 -158V-9Q157 -65 259 -65Q325 -65 355 -37T385 51V85Q341 17 251 17T101 79T40 256T98 441T249 512T385 440V507ZM192 199T216 166T286 133T358 168T385
254Q385 390 286 390Q242 390 217 356T192 261Z" />
<glyph unicode="h" glyph-name="h" horiz-adv-x="580" d="M206 707V421Q245 512 358 512Q432 512 478 465T525 323V0H379V300Q379 344 357 369T300 394Q271 394 242 374Q206 348 206 268V0H60V707H206Z" />
<glyph unicode="i" glyph-name="i" horiz-adv-x="276" d="M53 619T53 654T78 714T138 739T198 714T223 654T198 594T138 569T78 594ZM65 0V507H211V0H65Z" />
<glyph unicode="j" glyph-name="j" horiz-adv-x="274" d="M56 619T56 654T81 714T141 739T201 714T226 654T201 594T141 569T81 594ZM17 -86Q69 -86 69 -19V507H214V-21Q214 -101 169 -149T39 -198Q4 -198 -40 -182V-71Q-7 -86 17 -86Z" />
<glyph unicode="k" glyph-name="k" horiz-adv-x="548" d="M206 0H60V690H206V280L366 507H534L358 264L537 0H368L206 249V0Z" />
<glyph unicode="l" glyph-name="l" horiz-adv-x="276" d="M65 0V707H211V0H65Z" />
<glyph unicode="m" glyph-name="m" horiz-adv-x="859" d="M206 507V428Q248 512 352 512T491 416Q508 461 548 486T642 512Q717 512 760 465T804 325V0H658V301Q658 344 641 369T591 394T532 367T505 268V0H359V301Q359 344 342 369T292 394T233 367T206 268V0H60V507H206Z"
/>
<glyph unicode="n" glyph-name="n" horiz-adv-x="580" d="M206 507V421Q225 463 264 487T359 512Q437 512 481 466T525 329V0H379V302Q379 347 358 370T298 394T233 363T206 268V0H60V507H206Z" />
<glyph unicode="o" glyph-name="o" horiz-adv-x="567" d="M283 400Q235 400 211 359T187 253T211 147T284 105T356 145T380 251Q380 400 283 400ZM532 141T467 67T283 -8T100 63T35 249T103 439T286 515T467 442T532 255Z" />
<glyph unicode="p" glyph-name="p" horiz-adv-x="611" d="M206 507V429Q259 513 358 513T516 444T576 258T519 68T359 -6T206 75V-187H60V507H206ZM206 194T238 155T319 116T398 152T428 255T398 356T321 392T240 357T206 258Z" />
<glyph unicode="q" glyph-name="q" horiz-adv-x="611" d="M405 507H551V-187H405V79Q354 -6 253 -6T93 68T35 258T95 443T254 513T405 429V507ZM183 191T215 154T295 116T374 155T405 258T372 357T292 392T215 355T183 255Z" />
<glyph unicode="r" glyph-name="r" horiz-adv-x="370" d="M205 507V413Q219 457 251 483T327 510Q351 510 365 506V368Q341 379 310 379Q263 379 234 345T205 253V0H59L60 507H205Z" />
<glyph unicode="s" glyph-name="s" horiz-adv-x="436" d="M256 398Q230 398 216 388T202 365T207 344T223 329T245 317T274 303Q342 274 374 238T406 153Q406 78 352 37T208 -4T55 27V157Q124 109 201 109Q256 109 256 144Q256 163 234 176Q218 185 191 196T154
213Q53 261 53 357Q53 431 109 472T247 513T380 492V367Q327 398 256 398Z" />
<glyph unicode="t" glyph-name="t" horiz-adv-x="386" d="M229 400V167Q229 140 244 126T292 112T356 132V11Q319 -5 256 -5Q83 -5 83 168V400H10V507H83V627H229V507H347V400H229Z" />
<glyph unicode="u" glyph-name="u" horiz-adv-x="580" d="M374 507H520V0H374V81Q334 -4 220 -4Q142 -4 99 39T55 168V507H201V201Q201 112 279 112Q374 112 374 239V507Z" />
<glyph unicode="v" glyph-name="v" horiz-adv-x="536" d="M192 0L5 507H158Q238 246 249 199T268 113Q277 178 313 291L381 507H531L342 0H192Z" />
<glyph unicode="w" glyph-name="w" horiz-adv-x="806" d="M168 0L5 507H156Q233 215 243 138Q250 198 292 340L341 507H467Q550 218 563 138Q570 197 610 340L657 507H801L639 0H489Q416 277 404 354Q394 287 362 166L318 0H168Z" />
<glyph unicode="x" glyph-name="x" horiz-adv-x="526" d="M340 253L509 0H350L265 152L174 0H16L197 254L27 507H189L271 356L362 507H522L340 253Z" />
<glyph unicode="y" glyph-name="y" horiz-adv-x="532" d="M103 -198Q72 -198 47 -193V-77Q63 -81 81 -81Q164 -81 201 8L5 507H164Q261 229 273 172Q286 221 377 507H527L344 15Q265 -198 103 -198Z" />
<glyph unicode="z" glyph-name="z" horiz-adv-x="479" d="M427 507V406L205 113H439V0H40V105L262 395H49V507H427Z" />
<glyph unicode="{" glyph-name="braceleft" horiz-adv-x="380" d="M40 325H57Q96 325 119 354T142 421Q142 437 136 475T130 535Q130 613 174 664T289 715Q320 715 355 703V568Q340 577 322 577T288 562T273 528T279 471T285 407Q285 346 251 304T169 255Q216
249 250 206T285 102Q285 78 279 39T273 -19T288 -52T321 -68T355 -59V-194Q320 -206 289 -206Q219 -206 175 -155T130 -26Q130 -4 136 34T142 88Q142 126 119 155T57 185L40 184V325Z" />
<glyph unicode="|" glyph-name="bar" horiz-adv-x="280" d="M70 -194V695H210V-194H70Z" />
<glyph unicode="}" glyph-name="braceright" horiz-adv-x="380" d="M323 325H340V184Q333 185 323 185Q284 185 261 156T238 88Q238 72 244 34T250 -26Q250 -104 206 -155T91 -206Q60 -206 25 -194V-59Q40 -68 58 -68T92 -53T107 -19T101 38T95 102Q95 163 129
206T211 255Q164 261 130 303T95 407Q95 431 101 470T107 528T92 561T59 577T25 568V703Q60 715 91 715Q161 715 205 664T250 535Q250 513 244 475T238 421Q238 383 261 354T323 325Z" />
<glyph unicode="~" glyph-name="asciitilde" horiz-adv-x="654" d="M452 189Q395 189 331 213T233 238T177 224T129 180L28 260Q59 304 104 336T207 369T331 345T425 320T476 334T524 379L625 298Q548 189 452 189Z" />
<glyph unicode="&#xa0;" glyph-name="uni00A0" horiz-adv-x="250" />
<glyph unicode="&#xa1;" glyph-name="exclamdown" horiz-adv-x="289" d="M75 -165V273H214V-165H75ZM52 388T52 426T78 490T143 517T207 491T234 426T208 362T143 335T79 361Z" />
<glyph unicode="&#xa2;" glyph-name="cent" horiz-adv-x="478" d="M438 361Q385 394 322 394T219 357T178 252Q182 186 219 149T318 111T438 146V24Q403 6 359 -2V-111H238V-3Q146 15 88 84T30 252Q32 349 86 419T237 508V620H359V510Q402 502 438 483V361Z" />
<glyph unicode="&#xa3;" glyph-name="sterling" horiz-adv-x="540" d="M507 123V0H45V121Q118 159 118 251V267H44V373H104Q101 397 101 420Q101 533 160 596T335 660Q420 660 472 628V490Q426 523 368 523Q263 523 263 414Q263 401 265 373H431V267H276V250Q276
162 215 123H507Z" />
<glyph unicode="&#xa4;" glyph-name="currency" horiz-adv-x="571" d="M180 355T180 311T210 236T286 204T362 235T392 311T362 386T286 418T210 387ZM87 199Q58 251 58 310T86 421L28 478L113 560L171 503Q222 531 285 531T400 504L458 560L543 478L485 421Q514
368 514 310T484 199L543 142L458 60L399 116Q349 90 286 90T171 117L113 60L28 142L87 199Z" />
<glyph unicode="&#xa5;" glyph-name="yen" horiz-adv-x="635" d="M568 361V271H404L393 252V207H568V117H393V0H239V117H66V207H239V252L228 271H66V361H177L9 655H189L315 409L447 655H626L456 361H568Z" />
<glyph unicode="&#xa6;" glyph-name="brokenbar" horiz-adv-x="280" d="M210 -117H70V221H210V-117ZM210 369H70V707H210V369Z" />
<glyph unicode="&#xa7;" glyph-name="section" horiz-adv-x="599" d="M479 501Q396 549 315 549T234 500Q234 482 244 474T261 460T284 446T313 430T351 411T395 388Q464 352 497 310T531 200T489 82Q520 41 520 -8Q520 -91 456 -139T276 -187T86 -145V10Q177
-56 280 -56Q362 -56 362 -8Q362 18 332 37T178 111Q57 165 57 294Q57 356 103 411Q73 449 73 499Q73 581 134 630T299 680T479 645V501ZM216 328Q205 309 205 286T231 242T307 200T375 168Q383 184 383 199T378 225T365 245T341 264T311 280Q264 304 216 328Z"
/>
<glyph unicode="&#xa8;" glyph-name="dieresis" horiz-adv-x="500" d="M348 628T325 651T301 709T324 767T383 791T443 768T467 710T443 652T384 628ZM80 628T57 651T33 709T56 767T115 791T174 768T198 710T175 652T116 628Z" />
<glyph unicode="&#xa9;" glyph-name="copyright" horiz-adv-x="761" d="M336 302T356 283T412 263T487 287V192Q448 171 385 171T272 217T221 337T269 459T397 506Q446 506 487 484V390Q452 412 416 412T357 393T334 337Q336 302 356 283ZM273 585T203 515T132
336T202 158T380 88T558 158T629 336T559 514T381 585ZM35 195T35 338T136 582T381 683T625 582T726 338T625 94T381 -8T137 93Z" />
<glyph unicode="&#xaa;" glyph-name="ordfeminine" horiz-adv-x="400" d="M42 800Q94 828 187 828T325 789T370 668V392H250V444Q224 389 142 389Q80 389 45 424T10 517T55 610T189 645H244V673Q244 727 173 727T42 689V800ZM244 568H203Q172 568 155 555T138
519Q138 476 189 476Q214 476 229 492T244 536V568Z" />
<glyph unicode="&#xab;" glyph-name="guillemotleft" horiz-adv-x="592" d="M550 415L404 253L550 91H398L246 253L398 415H550ZM330 415L184 253L330 91H178L26 253L178 415H330Z" />
<glyph unicode="&#xac;" glyph-name="logicalnot" horiz-adv-x="603" d="M558 136H438V301H45V417H558V136Z" />
<glyph unicode="&#xad;" glyph-name="uni00AD" horiz-adv-x="357" d="M45 202V322H312V202H45Z" />
<glyph unicode="&#xae;" glyph-name="registered" horiz-adv-x="492" d="M10 654T76 720T245 786T415 720T482 551T415 383T246 317T77 382T10 551ZM72 472T119 424T246 376T373 424T421 551T374 679T247 728T120 679T72 551ZM174 677H244Q335 677 335 602Q335
554 297 536L357 440H291L241 526H228V440H174V677ZM228 632V571H250Q263 571 270 580T278 602Q278 632 246 632H228Z" />
<glyph unicode="&#xaf;" glyph-name="overscore" horiz-adv-x="500" d="M428 651H72V750H428V651Z" />
<glyph unicode="&#xb0;" glyph-name="degree" horiz-adv-x="440" d="M132 531T132 495T158 433T220 407T282 433T308 495T282 557T220 583T158 557ZM30 416T30 495T85 629T220 685T354 630T410 495T355 361T220 305T86 360Z" />
<glyph unicode="&#xb1;" glyph-name="plusminus" horiz-adv-x="589" d="M361 446H544V326H361V186H227V326H45V446H227V585H361V446ZM45 28V148H544V28H45Z" />
<glyph unicode="&#xb2;" glyph-name="twosuperior" horiz-adv-x="365" d="M35 392V469Q107 521 156 577T205 677Q205 728 144 728Q97 728 45 691V796Q97 829 164 829T273 793T316 692Q316 577 168 482H330V392H35Z" />
<glyph unicode="&#xb3;" glyph-name="threesuperior" horiz-adv-x="353" d="M109 654H123Q200 654 200 695T149 736T51 701V802Q98 829 163 829T270 796T311 708Q311 669 290 644T230 610Q268 606 293 580T318 505T277 422T160 388T35 415V509Q92 479 148 479Q176
479 192 492T209 524Q209 565 124 565H109V654Z" />
<glyph unicode="&#xb4;" glyph-name="acute" horiz-adv-x="500" d="M134 621L220 798H366L255 621H134Z" />
<glyph unicode="&#xb5;" glyph-name="uni00B5" horiz-adv-x="585" d="M379 507H525V0H379V60Q345 -4 275 -4Q239 -4 206 10V-180H60V507H206V201Q206 158 231 135T297 112T358 140T379 239V507Z" />
<glyph unicode="&#xb6;" glyph-name="paragraph" horiz-adv-x="592" d="M527 674V-148H416L417 674H527ZM324 674V-148H213V317Q116 317 63 369T10 496T64 622T232 674H324Z" />
<glyph unicode="&#xb7;" glyph-name="middot" horiz-adv-x="268" d="M45 215T45 252T71 315T134 341T197 315T223 252T197 189T134 163T71 189Z" />
<glyph unicode="&#xb8;" glyph-name="cedilla" horiz-adv-x="500" d="M339 -125Q339 -188 294 -228T160 -268V-177Q196 -177 215 -160T235 -114T209 -51H322Q339 -78 339 -125Z" />
<glyph unicode="&#xb9;" glyph-name="onesuperior" horiz-adv-x="279" d="M229 825V392H126V713L10 651V749L144 825H229Z" />
<glyph unicode="&#xba;" glyph-name="ordmasculine" horiz-adv-x="442" d="M220 733Q179 733 159 698T139 608T160 517T222 482T283 516T303 605Q303 733 220 733ZM432 512T377 449T221 386T65 447T10 605T67 766T224 830T377 768T432 609Z" />
<glyph unicode="&#xbb;" glyph-name="guillemotright" horiz-adv-x="591" d="M413 415L565 253L413 91H261L407 253L261 415H413ZM193 415L345 253L193 91H41L187 253L41 415H193Z" />
<glyph unicode="&#xbf;" glyph-name="questiondown" horiz-adv-x="458" d="M390 465T390 427T364 363T299 336T235 362T208 427T234 491T299 518T363 492ZM428 -144Q368 -172 275 -172T123 -123T65 11Q65 56 83 92T128 150Q184 192 228 192L231 274H364L367 123Q213
123 213 29Q213 -7 234 -28T298 -50Q363 -50 428 -7V-144Z" />
<glyph unicode="&#xc0;" glyph-name="Agrave" horiz-adv-x="690" d="M502 0L461 138H225L184 0H23L248 674H442L667 0H502ZM262 262H424Q357 491 343 562Q337 518 262 262ZM406 721H285L174 898H320L406 721Z" />
<glyph unicode="&#xc1;" glyph-name="Aacute" horiz-adv-x="690" d="M502 0L461 138H225L184 0H23L248 674H442L667 0H502ZM262 262H424Q357 491 343 562Q337 518 262 262ZM527 898L416 721H295L381 898H527Z" />
<glyph unicode="&#xc2;" glyph-name="Acircumflex" horiz-adv-x="690" d="M502 0L461 138H225L184 0H23L248 674H442L667 0H502ZM262 262H424Q357 491 343 562Q337 518 262 262ZM346 817L267 721H128L284 898H408L564 721H425L346 817Z" />
<glyph unicode="&#xc3;" glyph-name="Atilde" horiz-adv-x="690" d="M502 0L461 138H225L184 0H23L248 674H442L667 0H502ZM262 262H424Q357 491 343 562Q337 518 262 262ZM409 741Q376 741 340 758T284 776T250 768T214 733L149 797Q165 831 196 855T264 879T341
862T401 844Q450 844 471 887L545 826Q502 741 409 741Z" />
<glyph unicode="&#xc4;" glyph-name="Adieresis" horiz-adv-x="690" d="M502 0L461 138H225L184 0H23L248 674H442L667 0H502ZM262 262H424Q357 491 343 562Q337 518 262 262ZM300 775T277 752T218 728T159 751T135 809T158 867T217 891T276 868T300 810ZM569
775T545 752T486 728T427 751T403 809T426 867T485 891T545 868T569 810Z" />
<glyph unicode="&#xc5;" glyph-name="Aring" horiz-adv-x="690" d="M502 0L461 138H225L184 0H23L248 674H442L667 0H502ZM262 262H424Q357 491 343 562Q337 518 262 262ZM405 710T349 710T253 750T213 846T253 942T349 982T445 942T485 846T445 750ZM372 905T349
905T311 889T296 849T311 810T349 793T387 809T402 849T387 888Z" />
<glyph unicode="&#xc6;" glyph-name="AE" horiz-adv-x="940" d="M616 123H880V0H467V138H238L169 0H8L333 674H876V551H616V398H848V276H616V123ZM467 262V614Q433 526 301 262H467Z" />
<glyph unicode="&#xc7;" glyph-name="Ccedilla" horiz-adv-x="613" d="M563 497Q488 543 402 543T260 487T205 336T260 188T405 133T563 181V30Q502 -8 387 -8Q239 -8 140 87T40 336T136 586T388 683Q502 683 563 645V497ZM448 -125Q448 -188 403 -228T269 -268V-177Q305
-177 324 -160T344 -114T318 -51H431Q448 -78 448 -125Z" />
<glyph unicode="&#xc8;" glyph-name="Egrave" horiz-adv-x="544" d="M220 123H484V0H65V674H480V551H220V398H452V276H220V123ZM346 721H225L114 898H260L346 721Z" />
<glyph unicode="&#xc9;" glyph-name="Eacute" horiz-adv-x="544" d="M220 123H484V0H65V674H480V551H220V398H452V276H220V123ZM454 898L343 721H222L308 898H454Z" />
<glyph unicode="&#xca;" glyph-name="Ecircumflex" horiz-adv-x="544" d="M220 276V123H484V0H65V674H480V551H220V398H452V276H220ZM272 817L193 721H54L210 898H334L490 721H351L272 817Z" />
<glyph unicode="&#xcb;" glyph-name="Edieresis" horiz-adv-x="544" d="M220 276V123H484V0H65V674H480V551H220V398H452V276H220ZM220 774T197 751T138 727T79 750T55 808T78 866T137 890T196 867T220 809ZM489 774T465 751T406 727T347 750T323 808T346 866T405
890T465 867T489 809Z" />
<glyph unicode="&#xcc;" glyph-name="Igrave" horiz-adv-x="304" d="M122 898L208 721H87L-24 898H122ZM75 0V674H229V0H75Z" />
<glyph unicode="&#xcd;" glyph-name="Iacute" horiz-adv-x="304" d="M94 721L180 898H326L215 721H94ZM75 0V674H229V0H75Z" />
<glyph unicode="&#xce;" glyph-name="Icircumflex" horiz-adv-x="304" d="M75 0V674H229V0H75ZM92 898H216L372 721H233L154 817L75 721H-64L92 898Z" />
<glyph unicode="&#xcf;" glyph-name="Idieresis" horiz-adv-x="304" d="M256 728T233 751T209 809T232 867T291 891T351 868T375 810T351 752T292 728ZM-12 728T-35 751T-59 809T-36 867T23 891T82 868T106 810T83 752T24 728ZM75 0V674H229V0H75Z" />
<glyph unicode="&#xd0;" glyph-name="Eth" horiz-adv-x="749" d="M131 674H363Q515 674 612 581T709 348Q709 186 614 93T361 0H131V269H65V393H131V674ZM289 126H359Q452 126 502 184T553 340T502 492T358 547H289V393H427V269H289V126Z" />
<glyph unicode="&#xd1;" glyph-name="Ntilde" horiz-adv-x="697" d="M416 741Q383 741 347 758T291 776T257 768T221 733L156 797Q172 831 203 855T271 879T348 862T408 844Q456 844 478 887L552 826Q510 741 416 741ZM65 0V674H234L391 395Q459 274 488 190Q478
264 478 395V674H632V0H463L302 279Q239 386 212 463L204 488Q219 398 219 279V0H65Z" />
<glyph unicode="&#xd2;" glyph-name="Ograve" horiz-adv-x="736" d="M352 898L438 721H317L206 898H352ZM205 434T205 339T249 189T368 133T487 188T531 339T487 489T368 545T249 490ZM218 -7T129 88T40 338T129 589T368 685T607 590T696 340T607 89T368 -7Z" />
<glyph unicode="&#xd3;" glyph-name="Oacute" horiz-adv-x="736" d="M205 434T205 339T249 189T368 133T487 188T531 339T487 489T368 545T249 490ZM218 -7T129 88T40 338T129 589T368 685T607 590T696 340T607 89T368 -7ZM311 721L397 898H543L432 721H311Z" />
<glyph unicode="&#xd4;" glyph-name="Ocircumflex" horiz-adv-x="736" d="M310 898H434L590 721H451L372 817L293 721H154L310 898ZM218 -7T129 88T40 338T129 589T368 685T607 590T696 340T607 89T368 -7ZM205 434T205 339T249 189T368 133T487 188T531 339T487
489T368 545T249 490Z" />
<glyph unicode="&#xd5;" glyph-name="Otilde" horiz-adv-x="736" d="M430 740Q397 740 361 757T305 775T271 767T235 732L170 796Q186 830 217 854T285 878T362 861T422 843Q470 843 492 886L566 825Q524 740 430 740ZM205 434T205 339T249 189T368 133T487 188T531
339T487 489T368 545T249 490ZM218 -7T129 88T40 338T129 589T368 685T607 590T696 340T607 89T368 -7Z" />
<glyph unicode="&#xd6;" glyph-name="Odieresis" horiz-adv-x="736" d="M205 434T205 339T249 189T368 133T487 188T531 339T487 489T368 545T249 490ZM218 -7T129 88T40 338T129 589T368 685T607 590T696 340T607 89T368 -7ZM475 728T452 751T428 809T451 867T510
891T570 868T594 810T570 752T511 728ZM207 728T184 751T160 809T183 867T242 891T301 868T325 810T302 752T243 728Z" />
<glyph unicode="&#xd7;" glyph-name="multiply" horiz-adv-x="530" d="M487 209L395 117L265 246L138 119L43 213L171 341L42 469L134 561L263 433L390 560L485 466L357 338L487 209Z" />
<glyph unicode="&#xd8;" glyph-name="Oslash" horiz-adv-x="714" d="M616 577Q694 485 694 335T605 89T366 -7Q280 -7 210 27L185 -7H39L117 99Q38 192 38 343T127 589T366 685Q455 685 525 650L550 684H695L616 577ZM366 553Q288 553 242 495T196 339Q196 275
214 230L441 537Q406 553 366 553ZM366 125Q444 125 490 183T536 339Q536 400 519 445L294 140Q326 125 366 125Z" />
<glyph unicode="&#xd9;" glyph-name="Ugrave" horiz-adv-x="668" d="M316 898L402 721H281L170 898H316ZM454 260V674H608V261Q608 129 534 60T335 -10T135 59T60 254V674H214V255Q214 130 334 130T454 260Z" />
<glyph unicode="&#xda;" glyph-name="Uacute" horiz-adv-x="668" d="M454 260V674H608V261Q608 129 534 60T335 -10T135 59T60 254V674H214V255Q214 130 334 130T454 260ZM287 721L373 898H519L408 721H287Z" />
<glyph unicode="&#xdb;" glyph-name="Ucircumflex" horiz-adv-x="668" d="M270 898H394L550 721H411L332 817L253 721H114L270 898ZM454 260V674H608V261Q608 129 534 60T335 -10T135 59T60 254V674H214V255Q214 130 334 130T454 260Z" />
<glyph unicode="&#xdc;" glyph-name="Udieresis" horiz-adv-x="668" d="M454 260V674H608V261Q608 129 534 60T335 -10T135 59T60 254V674H214V255Q214 130 334 130T454 260ZM437 727T414 750T390 808T413 866T472 890T532 867T556 809T532 751T473 727ZM169 727T146
750T122 808T145 866T204 890T263 867T287 809T264 751T205 727Z" />
<glyph unicode="&#xdd;" glyph-name="Yacute" horiz-adv-x="643" d="M397 0H243V247L13 674H193Q294 432 319 360Q329 405 407 576L451 674H630L397 248V0ZM507 898L396 721H275L361 898H507Z" />
<glyph unicode="&#xde;" glyph-name="Thorn" horiz-adv-x="563" d="M219 564H297Q410 564 479 502T548 335T476 171T297 110H219V0H65V674H219V564ZM219 232H285Q338 232 365 261T392 334T367 410T285 441H219V232Z" />
<glyph unicode="&#xdf;" glyph-name="germandbls" horiz-adv-x="598" d="M381 105Q408 105 425 119T442 155T427 195T391 228T348 259Q297 297 297 351Q297 389 325 435T354 506Q354 563 292 563Q202 563 202 470V0H60V461Q60 570 118 630T278 690T441 640T502
519Q502 462 460 401Q447 381 447 368T467 338T512 303T557 247T578 159Q578 83 529 37T398 -9T280 15V138Q331 105 381 105Z" />
<glyph unicode="&#xe0;" glyph-name="agrave" horiz-adv-x="516" d="M74 482Q134 516 244 516T408 470T461 325V0H318V62Q286 -3 192 -3Q118 -3 77 39T35 149T88 257T247 298H311V333Q311 397 228 397T74 351V482ZM311 208H264Q227 208 207 192T187 151Q187 100
246 100Q277 100 294 119T311 171V208ZM326 554H205L94 731H240L326 554Z" />
<glyph unicode="&#xe1;" glyph-name="aacute" horiz-adv-x="516" d="M74 482Q134 516 244 516T408 470T461 325V0H318V62Q286 -3 192 -3Q118 -3 77 39T35 149T88 257T247 298H311V333Q311 397 228 397T74 351V482ZM311 208H264Q227 208 207 192T187 151Q187 100
246 100Q277 100 294 119T311 171V208ZM426 731L315 554H194L280 731H426Z" />
<glyph unicode="&#xe2;" glyph-name="acircumflex" horiz-adv-x="516" d="M74 482Q134 516 244 516T408 470T461 325V0H318V62Q286 -3 192 -3Q118 -3 77 39T35 149T88 257T247 298H311V333Q311 397 228 397T74 351V482ZM311 208H264Q227 208 207 192T187 151Q187
100 246 100Q277 100 294 119T311 171V208ZM256 650L177 554H38L194 731H318L474 554H335L256 650Z" />
<glyph unicode="&#xe3;" glyph-name="atilde" horiz-adv-x="516" d="M74 482Q134 516 244 516T408 470T461 325V0H318V62Q286 -3 192 -3Q118 -3 77 39T35 149T88 257T247 298H311V333Q311 397 228 397T74 351V482ZM311 208H264Q227 208 207 192T187 151Q187 100
246 100Q277 100 294 119T311 171V208ZM318 574Q285 574 249 591T193 609T159 601T123 566L58 630Q74 664 105 688T173 712T250 695T310 677Q358 677 380 720L454 659Q412 574 318 574Z" />
<glyph unicode="&#xe4;" glyph-name="adieresis" horiz-adv-x="516" d="M74 482Q134 516 244 516T408 470T461 325V0H318V62Q286 -3 192 -3Q118 -3 77 39T35 149T88 257T247 298H311V333Q311 397 228 397T74 351V482ZM311 208H264Q227 208 207 192T187 151Q187
100 246 100Q277 100 294 119T311 171V208ZM213 608T190 585T131 561T72 584T48 642T71 700T130 724T189 701T213 643ZM482 608T458 585T399 561T340 584T316 642T339 700T398 724T458 701T482 643Z" />
<glyph unicode="&#xe5;" glyph-name="aring" horiz-adv-x="516" d="M74 482Q134 516 244 516T408 470T461 325V0H318V62Q286 -3 192 -3Q118 -3 77 39T35 149T88 257T247 298H311V333Q311 397 228 397T74 351V482ZM311 208H264Q227 208 207 192T187 151Q187 100
246 100Q277 100 294 119T311 171V208ZM316 543T260 543T164 583T124 679T164 775T260 815T356 775T396 679T356 583ZM283 738T260 738T222 722T207 682T222 643T260 626T298 642T313 682T298 721Z" />
<glyph unicode="&#xe6;" glyph-name="ae" horiz-adv-x="808" d="M603 108Q680 108 737 151V29Q684 -5 585 -5Q528 -5 474 18T392 88Q376 50 333 23T212 -4T87 36T40 146T93 257T252 298H316V333Q316 397 233 397T79 351V482Q139 516 242 516Q296 516 335 496T391
442Q414 475 456 493T548 512Q650 512 709 453T768 275Q768 252 760 196H461Q477 154 514 131T603 108ZM632 300V311Q625 401 554 401Q520 401 493 375T456 300H632ZM316 171V208H269Q232 208 212 192T192 151Q192 100 251 100Q282 100 299 119T316 171Z" />
<glyph unicode="&#xe7;" glyph-name="ccedilla" horiz-adv-x="469" d="M369 -125Q369 -188 324 -228T190 -268V-177Q226 -177 245 -160T265 -114T239 -51H352Q369 -78 369 -125ZM187 185T223 148T320 111T439 146V24Q380 -8 297 -8Q183 -8 109 64T35 252Q37 366
109 440T306 515Q383 515 439 486V361Q386 394 323 394T222 358T183 252Q187 185 223 148Z" />
<glyph unicode="&#xe8;" glyph-name="egrave" horiz-adv-x="533" d="M458 29Q406 -5 290 -5T105 67T35 257T102 443T270 512T430 453T489 275Q489 252 481 196H183Q198 154 235 131T324 108Q401 108 458 151V29ZM353 300V312Q346 401 275 401Q240 401 213 376T177
300H353ZM336 554H215L104 731H250L336 554Z" />
<glyph unicode="&#xe9;" glyph-name="eacute" horiz-adv-x="533" d="M458 29Q406 -5 290 -5T105 67T35 257T102 443T270 512T430 453T489 275Q489 252 481 196H183Q198 154 235 131T324 108Q401 108 458 151V29ZM353 300V312Q346 401 275 401Q240 401 213 376T177
300H353ZM457 730L346 553H225L311 730H457Z" />
<glyph unicode="&#xea;" glyph-name="ecircumflex" horiz-adv-x="533" d="M458 29Q406 -5 290 -5T105 67T35 257T102 443T270 512T430 453T489 275Q489 252 481 196H183Q198 154 235 131T324 108Q401 108 458 151V29ZM353 300V312Q346 401 275 401Q240 401 213
376T177 300H353ZM269 650L190 554H51L207 731H331L487 554H348L269 650Z" />
<glyph unicode="&#xeb;" glyph-name="edieresis" horiz-adv-x="533" d="M458 29Q406 -5 290 -5T105 67T35 257T102 443T270 512T430 453T489 275Q489 252 481 196H183Q198 154 235 131T324 108Q401 108 458 151V29ZM353 300V312Q346 401 275 401Q240 401 213 376T177
300H353ZM232 608T209 585T150 561T91 584T67 642T90 700T149 724T208 701T232 643ZM501 608T477 585T418 561T359 584T335 642T358 700T417 724T477 701T501 643Z" />
<glyph unicode="&#xec;" glyph-name="igrave" horiz-adv-x="276" d="M103 731L189 554H68L-43 731H103ZM65 0V507H211V0H65Z" />
<glyph unicode="&#xed;" glyph-name="iacute" horiz-adv-x="276" d="M85 554L171 731H317L206 554H85ZM65 0V507H211V0H65Z" />
<glyph unicode="&#xee;" glyph-name="icircumflex" horiz-adv-x="276" d="M65 0V507H211V0H65ZM77 731H201L357 554H218L139 650L60 554H-79L77 731Z" />
<glyph unicode="&#xef;" glyph-name="idieresis" horiz-adv-x="276" d="M237 561T214 584T190 642T213 700T272 724T332 701T356 643T332 585T273 561ZM-31 561T-54 584T-78 642T-55 700T4 724T63 701T87 643T64 585T5 561ZM65 0V507H211V0H65Z" />
<glyph unicode="&#xf0;" glyph-name="eth" horiz-adv-x="557" d="M510 289Q510 154 448 72T273 -10T97 52T35 203T88 347T225 402T362 351Q349 437 300 512L157 442V523L254 570Q204 624 128 674H312Q340 654 369 627L482 682V601L417 569Q462 506 486 432T510
289ZM229 120T267 120T330 145T363 235Q321 279 266 279Q227 279 206 257T184 198T206 141Z" />
<glyph unicode="&#xf1;" glyph-name="ntilde" horiz-adv-x="580" d="M206 507V421Q225 463 264 487T359 512Q437 512 481 466T525 329V0H379V302Q379 347 358 370T298 394T233 363T206 268V0H60V507H206ZM354 574Q321 574 285 591T229 609T195 601T159 566L94
630Q110 664 141 688T209 712T286 695T346 677Q394 677 416 720L490 659Q448 574 354 574Z" />
<glyph unicode="&#xf2;" glyph-name="ograve" horiz-adv-x="567" d="M268 730L354 553H233L122 730H268ZM283 400Q235 400 211 359T187 253T211 147T284 105T356 145T380 251Q380 400 283 400ZM532 141T467 67T283 -8T100 63T35 249T103 439T286 515T467 442T532 255Z" />
<glyph unicode="&#xf3;" glyph-name="oacute" horiz-adv-x="567" d="M283 400Q235 400 211 359T187 253T211 147T284 105T356 145T380 251Q380 400 283 400ZM532 141T467 67T283 -8T100 63T35 249T103 439T286 515T467 442T532 255ZM235 553L321 730H467L356 553H235Z" />
<glyph unicode="&#xf4;" glyph-name="ocircumflex" horiz-adv-x="567" d="M225 730H349L505 553H366L287 649L208 553H69L225 730ZM532 141T467 67T283 -8T100 63T35 249T103 439T286 515T467 442T532 255ZM283 400Q235 400 211 359T187 253T211 147T284 105T356
145T380 251Q380 400 283 400Z" />
<glyph unicode="&#xf5;" glyph-name="otilde" horiz-adv-x="567" d="M349 574Q316 574 280 591T224 609T190 601T154 566L89 630Q105 664 136 688T204 712T281 695T341 677Q390 677 411 720L485 659Q442 574 349 574ZM283 400Q235 400 211 359T187 253T211 147T284
105T356 145T380 251Q380 400 283 400ZM532 141T467 67T283 -8T100 63T35 249T103 439T286 515T467 442T532 255Z" />
<glyph unicode="&#xf6;" glyph-name="odieresis" horiz-adv-x="567" d="M283 400Q235 400 211 359T187 253T211 147T284 105T356 145T380 251Q380 400 283 400ZM532 141T467 67T283 -8T100 63T35 249T103 439T286 515T467 442T532 255ZM393 562T370 585T346 643T369
701T428 725T488 702T512 644T488 586T429 562ZM125 562T102 585T78 643T101 701T160 725T219 702T243 644T220 586T161 562Z" />
<glyph unicode="&#xf7;" glyph-name="divide" horiz-adv-x="589" d="M214 133T214 164T236 217T290 240T343 218T366 164T344 111T290 88T237 110ZM45 275V405H544V275H45ZM214 485T214 516T236 569T290 592T343 570T366 516T344 463T290 440T237 462Z" />
<glyph unicode="&#xf8;" glyph-name="oslash" horiz-adv-x="562" d="M474 434Q532 366 532 254T467 67T284 -8Q221 -8 172 14L156 -8H35L92 72Q35 141 35 252T103 439T284 515Q343 515 395 494L410 515H532L474 434ZM283 416Q227 416 198 371T169 253Q169 217
176 189L332 406Q309 416 283 416ZM285 89Q342 89 370 134T398 251Q398 290 391 319L235 101Q256 89 285 89Z" />
<glyph unicode="&#xf9;" glyph-name="ugrave" horiz-adv-x="580" d="M374 507H520V0H374V81Q334 -4 220 -4Q142 -4 99 39T55 168V507H201V201Q201 112 279 112Q374 112 374 239V507ZM351 553H230L119 730H265L351 553Z" />
<glyph unicode="&#xfa;" glyph-name="uacute" horiz-adv-x="580" d="M374 507H520V0H374V81Q334 -4 220 -4Q142 -4 99 39T55 168V507H201V201Q201 112 279 112Q374 112 374 239V507ZM470 730L359 553H238L324 730H470Z" />
<glyph unicode="&#xfb;" glyph-name="ucircumflex" horiz-adv-x="580" d="M374 507H520V0H374V81Q334 -4 220 -4Q142 -4 99 39T55 168V507H201V201Q201 112 279 112Q374 112 374 239V507ZM288 650L209 554H70L226 731H350L506 554H367L288 650Z" />
<glyph unicode="&#xfc;" glyph-name="udieresis" horiz-adv-x="580" d="M374 507H520V0H374V81Q334 -4 220 -4Q142 -4 99 39T55 168V507H201V201Q201 112 279 112Q374 112 374 239V507ZM235 608T212 585T153 561T94 584T70 642T93 700T152 724T211 701T235 643ZM504
608T480 585T421 561T362 584T338 642T361 700T420 724T480 701T504 643Z" />
<glyph unicode="&#xfd;" glyph-name="yacute" horiz-adv-x="532" d="M103 -198Q72 -198 47 -193V-77Q63 -81 81 -81Q164 -81 201 8L5 507H164Q261 229 273 172Q286 221 377 507H527L344 15Q265 -198 103 -198ZM224 554L310 731H456L345 554H224Z" />
<glyph unicode="&#xfe;" glyph-name="thorn" horiz-adv-x="611" d="M206 707V429Q259 513 358 513T516 444T576 258T519 68T359 -6T206 75V-187H60V707H206ZM206 194T238 155T319 116T398 152T428 255T398 356T321 392T240 357T206 258Z" />
<glyph unicode="&#xff;" glyph-name="ydieresis" horiz-adv-x="532" d="M103 -198Q72 -198 47 -193V-77Q63 -81 81 -81Q164 -81 201 8L5 507H164Q261 229 273 172Q286 221 377 507H527L344 15Q265 -198 103 -198ZM106 561T83 584T59 642T82 700T141 724T200 701T224
643T201 585T142 561ZM374 561T351 584T327 642T350 700T409 724T469 701T493 643T469 585T410 561Z" />
<glyph unicode="&#x2013;" glyph-name="endash" horiz-adv-x="555" d="M45 215V322H510V215H45Z" />
<glyph unicode="&#x2014;" glyph-name="emdash" horiz-adv-x="836" d="M45 218V325H791V218H45Z" />
<glyph unicode="&#x2018;" glyph-name="quoteleft" horiz-adv-x="267" d="M289 694L188 433H27L163 694H289Z" />
<glyph unicode="&#x2019;" glyph-name="quoteright" horiz-adv-x="267" d="M28 433L129 694H290L154 433H28Z" />
<glyph unicode="&#x201a;" glyph-name="quotesinglbase" horiz-adv-x="267" d="M-7 -127L94 134H255L119 -127H-7Z" />
<glyph unicode="&#x201c;" glyph-name="quotedblleft" horiz-adv-x="452" d="M474 694L378 433H232L353 694H474ZM289 694L185 433H27L168 694H289Z" />
<glyph unicode="&#x201d;" glyph-name="quotedblright" horiz-adv-x="452" d="M28 433L124 694H270L149 433H28ZM213 433L317 694H475L334 433H213Z" />
<glyph unicode="&#x201e;" glyph-name="quotedblbase" horiz-adv-x="452" d="M-2 -127L94 134H240L119 -127H-2ZM183 -127L287 134H445L304 -127H183Z" />
<glyph unicode="&#x2022;" glyph-name="bullet" horiz-adv-x="425" d="M80 299T80 356T117 451T211 489T306 451T345 356T307 262T213 223T118 261Z" />
<glyph unicode="&#x2039;" glyph-name="guilsinglleft" horiz-adv-x="371" d="M330 415L184 253L330 91H178L26 253L178 415H330Z" />
<glyph unicode="&#x203a;" glyph-name="guilsinglright" horiz-adv-x="371" d="M193 415L345 253L193 91H41L187 253L41 415H193Z" />
</font>
</defs>
</svg>
